<!-- <svg fill="#000000" version="1.1" id="Capa_1" xmlns="http://www.w3.org/2000/svg" xmlns:xlink="http://www.w3.org/1999/xlink" xml:space="preserve" viewBox="14 0 32 60"><g>	<path d="M42.536,4H36V0H24v4h-6.536C15.554,4,14,5.554,14,7.464v49.072C14,58.446,15.554,60,17.464,60h25.071   C44.446,60,46,58.446,46,56.536V7.464C46,5.554,44.446,4,42.536,4z M44,56.536C44,57.344,43.343,58,42.536,58H17.464   C16.657,58,16,57.344,16,56.536V7.464C16,6.656,16.657,6,17.464,6H24h12h6.536C43.343,6,44,6.656,44,7.464V56.536z"></path>	<path d="M37,29h-3V17.108c0.013-0.26-0.069-0.515-0.236-0.72c-0.381-0.467-1.264-0.463-1.642,0.004   c-0.026,0.032-0.05,0.066-0.072,0.103L22.15,32.474c-0.191,0.309-0.2,0.696-0.023,1.013C22.303,33.804,22.637,34,23,34h4   l0.002,12.929h0.001c0.001,0.235,0.077,0.479,0.215,0.657C27.407,47.833,27.747,48,28.058,48c0.305,0,0.636-0.16,0.825-0.398   c0.04-0.05,0.074-0.103,0.104-0.159l8.899-16.979c0.163-0.31,0.151-0.682-0.03-0.981S37.35,29,37,29z"></path></g></svg> -->

<svg xmlns="http://www.w3.org/2000/svg" viewBox="2 7 20 10">  
	<path fill="white" d="M20,15.67V14h2V10H20V8.33A1.34,1.34,0,0,0,18.67,7H3.34A1.34,1.34,0,0,0,2,8.33v7.33A1.34,1.34,0,0,0,3.33,17H18.67A1.34,1.34,0,0,0,20,15.67Z" fill-opacity="1fi"></path>  
	<path d="M24,0V24H0V0Z" fill="none"></path>
</svg>