<svg xmlns="http://www.w3.org/2000/svg" version="1.1" viewBox="1.02 17.32 97.95 65.38">  <g>   
    <path fill="black" d="m20.176 75.059h-11.184c-4.3867-0.003906-7.9453-3.5625-7.9492-7.9492v-41.832c0.003906-4.3906 3.5625-7.9453 7.9492-7.9531h11.184c2.2148 0.003906 4.0117 1.8008 4.0156 4.0156v49.703c-0.003906 2.2188-1.8008 4.0156-4.0156 4.0156zm-11.184-55.648c-3.2383 0.003906-5.8633 2.6289-5.8672 5.8672v41.832c0.003906 3.2383 2.6289 5.8633 5.8672 5.8672h11.184c1.0664 0 1.9297-0.86719 1.9336-1.9336v-49.703c-0.003906-1.0664-0.86719-1.9297-1.9336-1.9297z"></path>   
    <path fill="black" d="m76.879 72.898h-53.773c-0.27734 0-0.54297-0.10938-0.73828-0.30469-0.19531-0.19531-0.30469-0.46094-0.30469-0.73828v-51.324c0-0.27734 0.10938-0.54297 0.30469-0.73828 0.19531-0.19531 0.46094-0.30469 0.73828-0.30469h53.773c2.4727 0.003907 4.4766 2.0078 4.4766 4.4766v44.457c0 2.4688-2.0039 4.4727-4.4766 4.4766zm-52.734-2.082h52.734v-0.003906c1.3203 0 2.3906-1.0703 2.3945-2.3906v-44.457c0-1.3203-1.0742-2.3906-2.3945-2.3906h-52.734z"></path>   
    <path fill="black" d="m58.848 82.676h-27.578c-0.27734 0-0.54297-0.10938-0.73828-0.30859-0.19531-0.19531-0.30469-0.45703-0.30469-0.73438v-9.7812c0-0.27734 0.10938-0.54297 0.30469-0.73828 0.19531-0.19531 0.46094-0.30469 0.73828-0.30469h27.578c0.27734 0 0.54297 0.10938 0.73828 0.30469 0.19531 0.19531 0.30469 0.46094 0.30469 0.73828v9.7812c0 0.27734-0.10938 0.53906-0.30469 0.73438-0.19531 0.19922-0.46094 0.30859-0.73828 0.30859zm-26.535-2.082 25.492-0.003906v-7.6953h-25.492z"></path>   
    <path fill="black" d="m66.809 82.676h-43.5c-0.57422 0-1.0391-0.46875-1.0391-1.043 0-0.57422 0.46484-1.043 1.0391-1.043h43.5c0.57422 0 1.0391 0.46875 1.0391 1.043 0 0.57422-0.46484 1.043-1.0391 1.043z"></path>   
    <path fill="black" d="m71.078 32.598h-38.668c-0.57422 0-1.0391-0.46875-1.0391-1.043 0-0.57422 0.46484-1.043 1.0391-1.043h38.668c0.57812 0 1.043 0.46875 1.043 1.043 0 0.57422-0.46484 1.043-1.043 1.043z"></path>   
    <path fill="black" d="m71.078 42.355h-38.668c-0.57422 0-1.0391-0.46484-1.0391-1.043 0-0.57422 0.46484-1.0391 1.0391-1.0391h38.668c0.57812 0 1.043 0.46484 1.043 1.0391 0 0.57812-0.46484 1.043-1.043 1.043z"></path>   
    <path fill="black" d="m71.078 52.113h-38.668c-0.57422 0-1.0391-0.46484-1.0391-1.043 0-0.57422 0.46484-1.0391 1.0391-1.0391h38.668c0.57812 0 1.043 0.46484 1.043 1.0391 0 0.57813-0.46484 1.043-1.043 1.043z"></path>   
    <path fill="black" d="m71.078 61.871h-38.668c-0.57422 0-1.0391-0.46484-1.0391-1.0391s0.46484-1.043 1.0391-1.043h38.668c0.57812 0 1.043 0.46875 1.043 1.043s-0.46484 1.0391-1.043 1.0391z"></path>   
    <path fill="black" d="m83.758 63.328h-3.2656c-0.27734 0-0.54297-0.10938-0.73828-0.30469-0.19531-0.19531-0.30469-0.46094-0.30469-0.73438v-32.191c0-0.27734 0.10938-0.53906 0.30469-0.73438 0.19531-0.19531 0.46094-0.30469 0.73828-0.30469h3.2656c2.6367 0 4.7773 2.1406 4.7812 4.7773v24.715c-0.003906 2.6367-2.1445 4.7734-4.7812 4.7773zm-2.2227-2.082h2.2227c1.4883 0 2.6953-1.207 2.6953-2.6953v-24.715c0-1.4883-1.207-2.6953-2.6953-2.6953h-2.2227z"></path>   
    <path fill="black" d="m94.328 50.824h-6.832c-0.27734 0-0.54297-0.10938-0.73828-0.30469-0.19531-0.19531-0.30469-0.46094-0.30469-0.73828v-7.1758c0-0.27734 0.10938-0.54297 0.30469-0.73828 0.19531-0.19531 0.46094-0.30469 0.73828-0.30469h6.832c2.5547 0.003906 4.625 2.0742 4.625 4.6289 0 2.5547-2.0703 4.6289-4.625 4.6328zm-5.7891-2.082h5.7891c1.4062-0.003907 2.543-1.1445 2.543-2.5508 0-1.4023-1.1367-2.543-2.543-2.5469h-5.7891z"></path>  
</g> </svg>