<!-- <svg xmlns="http://www.w3.org/2000/svg" x="0px" y="0px" viewBox="125 17 262.02 478.02"><g data-name="43 Battery"><path fill="white" d="M297,347.24a41,41,0,1,1-63.18-34.46,6,6,0,0,0,2.75-5V241h38.88v66.75a6,6,0,0,0,2.75,5A40.88,40.88,0,0,1,297,347.24Z"></path><path fill="white" d="M354.44,68.78H157.56A32.62,32.62,0,0,0,125,101.36V462.42A32.62,32.62,0,0,0,157.56,495H354.44A32.62,32.62,0,0,0,387,462.42V101.36A32.62,32.62,0,0,0,354.44,68.78Zm-62.4,364H220A12.37,12.37,0,1,1,220,408H292a12.37,12.37,0,1,1,0,24.74Zm-36-32.52a53,53,0,0,1-31.44-95.64V178.35a31.44,31.44,0,0,1,62.88,0V304.59A53,53,0,0,1,256,400.23Z"></path><path fill="white" d="M307.18,34.84A17.86,17.86,0,0,0,289.34,17H222.66a17.86,17.86,0,0,0-17.84,17.84V56.79H307.18Z"></path></g></svg> -->

<svg xmlns="http://www.w3.org/2000/svg" xmlns:xlink="http://www.w3.org/1999/xlink" version="1.1" x="0px" y="0px" enable-background="new 0 0 32 32" xml:space="preserve" viewBox="-1.58 1.5 35.17 29.02"> 	
	<path stroke="white" d="M14.018,21.904c1.465,0,2.658-1.191,2.658-2.657c0-1.295-0.932-2.374-2.158-2.608V6.961c0-0.277-0.225-0.5-0.5-0.5  c-0.277,0-0.5,0.223-0.5,0.5v9.678c-1.229,0.234-2.158,1.313-2.158,2.608C11.359,20.713,12.551,21.904,14.018,21.904z   M14.018,17.588c0.914,0,1.658,0.744,1.658,1.659c0,0.914-0.744,1.657-1.658,1.657s-1.658-0.743-1.658-1.657  C12.359,18.332,13.104,17.588,14.018,17.588z"></path> 	
	<path stroke="white" d="M14.018,24.389c2.833,0,5.141-2.307,5.141-5.142c0-1.935-1.086-3.692-2.793-4.569v-8.32c0-1.295-1.053-2.348-2.348-2.348  S11.67,5.063,11.67,6.357v8.32c-1.707,0.877-2.793,2.636-2.793,4.569C8.877,22.082,11.182,24.389,14.018,24.389z M12.369,15.451  c0.182-0.079,0.301-0.259,0.301-0.458V6.357c0-0.743,0.604-1.348,1.348-1.348c0.742,0,1.348,0.604,1.348,1.348v8.636  c0,0.199,0.117,0.379,0.301,0.458c1.515,0.659,2.492,2.148,2.492,3.796c0,2.282-1.857,4.142-4.141,4.142  c-2.284,0-4.141-1.857-4.141-4.142C9.877,17.602,10.855,16.11,12.369,15.451z"></path> 	
	<rect stroke="white" x="17.711" y="6.641" width="2.197" height="1"></rect> 	
	<rect stroke="white" x="17.711" y="8.604" width="2.197" height="1"></rect> 	
	<rect stroke="white" x="17.711" y="10.567" width="2.197" height="1"></rect> 	
	<path stroke="white" d="M30.561,16.138h-2.213v-2.394c0-1.074-0.875-1.947-1.947-1.947h-4.491v1H26.4c0.521,0,0.947,0.425,0.947,0.947v12.299  c0,0.521-0.427,0.947-0.947,0.947H2.887c-0.521,0-0.947-0.426-0.947-0.947V13.744c0-0.522,0.426-0.947,0.947-0.947H9.67v-1H2.887  c-1.072,0-1.947,0.873-1.947,1.947v12.299c0,1.073,0.875,1.947,1.947,1.947H26.4c1.072,0,1.947-0.874,1.947-1.947v-2.395h2.213  c0.274,0,0.5-0.224,0.5-0.5v-6.512C31.061,16.361,30.836,16.138,30.561,16.138z M30.061,22.648h-1.713v-5.512h1.713V22.648z"></path> 	
	<rect stroke="white" x="17.711" y="12.531" width="2.197" height="1"></rect> 
</svg>