<svg xmlns="http://www.w3.org/2000/svg" x="0px" y="0px" viewBox="125 17 262.02 478.02"><g data-name="43 Battery"><path d="M297,347.24a41,41,0,1,1-63.18-34.46,6,6,0,0,0,2.75-5V241h38.88v66.75a6,6,0,0,0,2.75,5A40.88,40.88,0,0,1,297,347.24Z"></path><path d="M354.44,68.78H157.56A32.62,32.62,0,0,0,125,101.36V462.42A32.62,32.62,0,0,0,157.56,495H354.44A32.62,32.62,0,0,0,387,462.42V101.36A32.62,32.62,0,0,0,354.44,68.78Zm-62.4,364H220A12.37,12.37,0,1,1,220,408H292a12.37,12.37,0,1,1,0,24.74Zm-36-32.52a53,53,0,0,1-31.44-95.64V178.35a31.44,31.44,0,0,1,62.88,0V304.59A53,53,0,0,1,256,400.23Z"></path><path d="M307.18,34.84A17.86,17.86,0,0,0,289.34,17H222.66a17.86,17.86,0,0,0-17.84,17.84V56.79H307.18Z"></path></g></svg>