<svg xmlns="http://www.w3.org/2000/svg" x="0px" y="0px" viewBox="5.25 13.25 53.5 37.5"><path d="M56,13.25H8A2.75,2.75,0,0,0,5.25,16V48A2.75,2.75,0,0,0,8,50.75H56A2.75,2.75,0,0,0,58.75,48V16A2.75,2.75,0,0,0,56,13.25ZM36.75,46a.76.76,0,0,1-.75.75H10A.76.76,0,0,1,9.25,46V18a.76.76,0,0,1,.75-.75H36a.76.76,0,0,1,.75.75Zm7.5-3a.76.76,0,0,1-.75.75h-1a.76.76,0,0,1-.75-.75V42a.76.76,0,0,1,.75-.75h1a.76.76,0,0,1,.75.75Zm0-5a.76.76,0,0,1-.75.75h-1a.76.76,0,0,1-.75-.75V37a.76.76,0,0,1,.75-.75h1a.76.76,0,0,1,.75.75Zm5,5a.76.76,0,0,1-.75.75h-1a.76.76,0,0,1-.75-.75V42a.76.76,0,0,1,.75-.75h1a.76.76,0,0,1,.75.75Zm0-5a.76.76,0,0,1-.75.75h-1a.76.76,0,0,1-.75-.75V37a.76.76,0,0,1,.75-.75h1a.76.76,0,0,1,.75.75Zm5,5a.76.76,0,0,1-.75.75h-1a.76.76,0,0,1-.75-.75V42a.76.76,0,0,1,.75-.75h1a.76.76,0,0,1,.75.75Zm0-5a.76.76,0,0,1-.75.75h-1a.76.76,0,0,1-.75-.75V37a.76.76,0,0,1,.75-.75h1a.76.76,0,0,1,.75.75ZM55,33.75H41a.75.75,0,0,1,0-1.5H55a.75.75,0,0,1,0,1.5ZM55.75,27a.76.76,0,0,1-.75.75H41a.76.76,0,0,1-.75-.75V21a.76.76,0,0,1,.75-.75H55a.76.76,0,0,1,.75.75Zm-38,10a3.23,3.23,0,0,1,1.63-2.8.74.74,0,0,0,.37-.65V25a1.25,1.25,0,0,1,2.5,0v8.55a.74.74,0,0,0,.37.65A3.24,3.24,0,1,1,17.75,37Zm-7,8.25h24.5V18.75H10.75ZM28,21.5A1.5,1.5,0,1,1,26.5,23,1.5,1.5,0,0,1,28,21.5ZM18.25,33.15V25a2.75,2.75,0,0,1,5.5,0v8.15a4.75,4.75,0,1,1-5.5,0Zm23.5-11.4h12.5v4.5H41.75Z"></path></svg>