<?xml version="1.0" encoding="iso-8859-1"?>
<!-- Uploaded to: SVG Repo, www.svgrepo.com, Generator: SVG Repo Mixer Tools -->
<!DOCTYPE svg PUBLIC "-//W3C//DTD SVG 1.1//EN" "http://www.w3.org/Graphics/SVG/1.1/DTD/svg11.dtd">
<svg fill="#000000" version="1.1" id="Capa_1" xmlns="http://www.w3.org/2000/svg" xmlns:xlink="http://www.w3.org/1999/xlink" 
	 width="800px" height="800px" viewBox="0 0 96.258 96.258"
	 xml:space="preserve">
<g>
	<path d="M75.225,37.515c-0.357-0.616-1.017-0.995-1.729-0.995h-21.03L67.177,2.8c0.271-0.618,0.21-1.331-0.16-1.896
		S66.018,0,65.344,0H41.976c-0.848,0-1.604,0.535-1.886,1.334L20.876,55.762c-0.216,0.612-0.122,1.291,0.253,1.821
		s0.984,0.845,1.633,0.845h22.636L34.391,93.662c-0.189,0.607-0.079,1.269,0.298,1.781s0.975,0.814,1.611,0.814h5.449
		c0.719,0,1.382-0.386,1.738-1.01L75.234,39.51C75.587,38.891,75.583,38.131,75.225,37.515z"/>
</g>
</svg>