<svg xmlns="http://www.w3.org/2000/svg" xmlns:xlink="http://www.w3.org/1999/xlink" version="1.1" x="0px" y="0px" viewBox="0 0 100 125" enable-background="new 0 0 100 100" xml:space="preserve"><path d="M95.034,30.975c-2.462-5.821-5.985-11.048-10.475-15.536c-4.487-4.488-9.714-8.012-15.534-10.473  C62.998,2.417,56.598,1.125,50,1.125c-6.597,0-12.998,1.292-19.025,3.841c-5.82,2.461-11.047,5.985-15.535,10.473  c-4.489,4.488-8.012,9.715-10.474,15.536C2.417,37,1.125,43.402,1.125,50c0,6.596,1.293,12.998,3.841,19.024  c2.462,5.82,5.985,11.048,10.474,15.535c4.488,4.488,9.715,8.012,15.535,10.474c6.028,2.549,12.428,3.843,19.025,3.843  c6.598,0,12.998-1.294,19.025-3.843c5.82-2.462,11.047-5.985,15.534-10.474c4.489-4.487,8.013-9.715,10.475-15.535  c2.548-6.026,3.841-12.429,3.841-19.024C98.875,43.402,97.582,37,95.034,30.975z M91.439,67.506  c-2.265,5.356-5.508,10.166-9.637,14.296c-4.131,4.13-8.939,7.373-14.295,9.639c-5.547,2.346-11.437,3.534-17.507,3.534  c-6.071,0-11.962-1.188-17.508-3.534c-5.355-2.266-10.166-5.509-14.296-9.639c-4.129-4.13-7.372-8.939-9.637-14.296  C6.214,61.96,5.024,56.07,5.024,50c0-6.072,1.19-11.962,3.536-17.507c2.265-5.356,5.508-10.166,9.637-14.296  c4.13-4.13,8.94-7.373,14.296-9.638c5.546-2.347,11.437-3.536,17.508-3.536c6.07,0,11.96,1.189,17.507,3.536  c5.355,2.266,10.164,5.508,14.295,9.638c4.129,4.13,7.372,8.939,9.637,14.296c2.347,5.545,3.536,11.435,3.536,17.507  C94.976,56.07,93.786,61.96,91.439,67.506z M43.394,58.033c0-2.221,1.084-4.185,2.747-5.403c0-4.162,0-26.109,0-27.524  c0-2.186,1.771-3.955,3.956-3.955s3.955,1.77,3.955,3.955c0,0.217,0,0.909,0,1.939c0.019-0.001,0.034-0.005,0.052-0.005h4.589  c0.405,0,0.734,0.315,0.734,0.703v2.02c0,0.387-0.329,0.701-0.734,0.701h-4.589c-0.018,0-0.033-0.003-0.052-0.004  c0,1.457,0,3.115,0,4.86c0.019-0.001,0.034-0.005,0.052-0.005h4.589c0.405,0,0.734,0.314,0.734,0.703v2.019  c0,0.389-0.329,0.703-0.734,0.703h-4.589c-0.018,0-0.033-0.004-0.052-0.005c0,1.641,0,3.289,0,4.861  c0.019-0.001,0.034-0.004,0.052-0.004h4.589c0.405,0,0.734,0.314,0.734,0.702v2.019c0,0.388-0.329,0.702-0.734,0.702h-4.589  c-0.018,0-0.033-0.003-0.052-0.005c0,2.494,0,4.532,0,5.622c1.665,1.22,2.748,3.183,2.748,5.404c0,3.702-3.001,6.703-6.703,6.703  S43.394,61.735,43.394,58.033z M65.463,56.82c2.062,1.914,4.226,1.878,6.813-0.114c3.927-3.023,6.342-2.812,6.988-2.676l-0.801,3.78  c0,0,0.045,0.016,0.135,0.021c-0.012,0-1.375-0.062-3.966,1.935c-4.055,3.123-8.354,3.082-11.798-0.114  c-1.631-1.517-3.034-1.767-4.188-1.503c0.002-0.096,0.008-0.191,0.008-0.289c0-1.243-0.27-2.424-0.75-3.49  C60.48,53.813,63.106,54.632,65.463,56.82z M21.536,57.811l-0.802-3.78c0.646-0.136,3.062-0.349,6.989,2.676  c2.587,1.992,4.753,2.028,6.813,0.114c2.433-2.26,5.153-3.063,7.808-2.396c-0.465,1.051-0.725,2.214-0.725,3.437  c0,0.122,0.004,0.242,0.008,0.362c-1.205-0.369-2.701-0.207-4.463,1.43c-3.442,3.196-7.743,3.237-11.799,0.114  c-2.59-1.996-3.952-1.935-3.964-1.935C21.491,57.826,21.536,57.811,21.536,57.811z M79.265,63.864l-0.801,3.779  c0,0,0.045,0.016,0.135,0.021c-0.012,0-1.375-0.062-3.966,1.934c-4.055,3.124-8.354,3.083-11.798-0.114  c-2.795-2.594-4.919-1.482-6.274-0.421c-1.828,1.434-3.819,2.836-6.252,2.869c-0.009,0-0.018,0-0.026,0  c-0.097,0-0.189-0.014-0.282-0.028c-0.093,0.015-0.186,0.028-0.282,0.028c-0.008,0-0.017,0-0.026,0  c-2.434-0.033-4.423-1.436-6.252-2.869c-1.355-1.062-3.479-2.173-6.274,0.421c-3.442,3.198-7.743,3.238-11.799,0.114  c-2.59-1.994-3.952-1.934-3.964-1.934c0.089-0.006,0.134-0.021,0.134-0.021l-0.802-3.779c0.646-0.137,3.062-0.35,6.989,2.676  c2.587,1.991,4.753,2.027,6.813,0.113c3.517-3.267,7.631-3.496,11.285-0.631c1.599,1.253,2.812,2.032,3.922,2.048  c0.087,0.002,0.172,0.01,0.256,0.022c0.084-0.013,0.169-0.021,0.256-0.022c1.109-0.016,2.323-0.795,3.921-2.048  c3.655-2.865,7.768-2.636,11.285,0.631c2.062,1.914,4.226,1.878,6.813-0.113C76.203,63.516,78.618,63.728,79.265,63.864z"/></svg>